<svg id="visual" viewBox="0 0 320 100" width="320" height="100" xmlns="http://www.w3.org/2000/svg" xmlns:xlink="http://www.w3.org/1999/xlink" version="1.1"><rect x="0" y="0" width="320" height="100" fill="#111827"></rect><path d="M0 25L6 25.3C12 25.7 24 26.3 35.8 29.7C47.7 33 59.3 39 71.2 38C83 37 95 29 106.8 28.5C118.7 28 130.3 35 142.2 39.7C154 44.3 166 46.7 177.8 44.3C189.7 42 201.3 35 213.2 36.8C225 38.7 237 49.3 248.8 51.7C260.7 54 272.3 48 284.2 47.8C296 47.7 308 53.3 314 56.2L320 59L320 0L314 0C308 0 296 0 284.2 0C272.3 0 260.7 0 248.8 0C237 0 225 0 213.2 0C201.3 0 189.7 0 177.8 0C166 0 154 0 142.2 0C130.3 0 118.7 0 106.8 0C95 0 83 0 71.2 0C59.3 0 47.7 0 35.8 0C24 0 12 0 6 0L0 0Z" fill="#1e5c89"></path><path d="M0 50L6 45.5C12 41 24 32 35.8 26C47.7 20 59.3 17 71.2 21.5C83 26 95 38 106.8 39.3C118.7 40.7 130.3 31.3 142.2 31.2C154 31 166 40 177.8 40.3C189.7 40.7 201.3 32.3 213.2 32.8C225 33.3 237 42.7 248.8 44.2C260.7 45.7 272.3 39.3 284.2 32.8C296 26.3 308 19.7 314 16.3L320 13L320 0L314 0C308 0 296 0 284.2 0C272.3 0 260.7 0 248.8 0C237 0 225 0 213.2 0C201.3 0 189.7 0 177.8 0C166 0 154 0 142.2 0C130.3 0 118.7 0 106.8 0C95 0 83 0 71.2 0C59.3 0 47.7 0 35.8 0C24 0 12 0 6 0L0 0Z" fill="#2c658e"></path><path d="M0 37L6 33.5C12 30 24 23 35.8 20C47.7 17 59.3 18 71.2 17.2C83 16.3 95 13.7 106.8 15C118.7 16.3 130.3 21.7 142.2 24.5C154 27.3 166 27.7 177.8 29.2C189.7 30.7 201.3 33.3 213.2 31C225 28.7 237 21.3 248.8 20.3C260.7 19.3 272.3 24.7 284.2 26.5C296 28.3 308 26.7 314 25.8L320 25L320 0L314 0C308 0 296 0 284.2 0C272.3 0 260.7 0 248.8 0C237 0 225 0 213.2 0C201.3 0 189.7 0 177.8 0C166 0 154 0 142.2 0C130.3 0 118.7 0 106.8 0C95 0 83 0 71.2 0C59.3 0 47.7 0 35.8 0C24 0 12 0 6 0L0 0Z" fill="#396d94"></path><path d="M0 23L6 20.2C12 17.3 24 11.7 35.8 11.8C47.7 12 59.3 18 71.2 19.8C83 21.7 95 19.3 106.8 18.8C118.7 18.3 130.3 19.7 142.2 19C154 18.3 166 15.7 177.8 14.5C189.7 13.3 201.3 13.7 213.2 11.8C225 10 237 6 248.8 6.2C260.7 6.3 272.3 10.7 284.2 11.7C296 12.7 308 10.3 314 9.2L320 8L320 0L314 0C308 0 296 0 284.2 0C272.3 0 260.7 0 248.8 0C237 0 225 0 213.2 0C201.3 0 189.7 0 177.8 0C166 0 154 0 142.2 0C130.3 0 118.7 0 106.8 0C95 0 83 0 71.2 0C59.3 0 47.7 0 35.8 0C24 0 12 0 6 0L0 0Z" fill="#467699"></path></svg>