<svg id="visual" viewBox="0 0 960 300" width="960" height="300" xmlns="http://www.w3.org/2000/svg" xmlns:xlink="http://www.w3.org/1999/xlink" version="1.1"><rect x="0" y="0" width="960" height="300" fill="#467699"></rect><path d="M0 112L17.8 106.2C35.7 100.3 71.3 88.7 106.8 78.5C142.3 68.3 177.7 59.7 213.2 69.5C248.7 79.3 284.3 107.7 320 110.5C355.7 113.3 391.3 90.7 426.8 79C462.3 67.3 497.7 66.7 533.2 65C568.7 63.3 604.3 60.7 640 69.7C675.7 78.7 711.3 99.3 746.8 100.2C782.3 101 817.7 82 853.2 80.2C888.7 78.3 924.3 93.7 942.2 101.3L960 109L960 0L942.2 0C924.3 0 888.7 0 853.2 0C817.7 0 782.3 0 746.8 0C711.3 0 675.7 0 640 0C604.3 0 568.7 0 533.2 0C497.7 0 462.3 0 426.8 0C391.3 0 355.7 0 320 0C284.3 0 248.7 0 213.2 0C177.7 0 142.3 0 106.8 0C71.3 0 35.7 0 17.8 0L0 0Z" fill="#ad6653"></path><path d="M0 36L17.8 35.5C35.7 35 71.3 34 106.8 40.2C142.3 46.3 177.7 59.7 213.2 62.2C248.7 64.7 284.3 56.3 320 51.3C355.7 46.3 391.3 44.7 426.8 53.2C462.3 61.7 497.7 80.3 533.2 92C568.7 103.7 604.3 108.3 640 99C675.7 89.7 711.3 66.3 746.8 56.8C782.3 47.3 817.7 51.7 853.2 53.8C888.7 56 924.3 56 942.2 56L960 56L960 0L942.2 0C924.3 0 888.7 0 853.2 0C817.7 0 782.3 0 746.8 0C711.3 0 675.7 0 640 0C604.3 0 568.7 0 533.2 0C497.7 0 462.3 0 426.8 0C391.3 0 355.7 0 320 0C284.3 0 248.7 0 213.2 0C177.7 0 142.3 0 106.8 0C71.3 0 35.7 0 17.8 0L0 0Z" fill="#c0745c"></path><path d="M0 81L17.8 76.5C35.7 72 71.3 63 106.8 59.8C142.3 56.7 177.7 59.3 213.2 57.2C248.7 55 284.3 48 320 49.7C355.7 51.3 391.3 61.7 426.8 63C462.3 64.3 497.7 56.7 533.2 47.5C568.7 38.3 604.3 27.7 640 22.8C675.7 18 711.3 19 746.8 19.3C782.3 19.7 817.7 19.3 853.2 20.2C888.7 21 924.3 23 942.2 24L960 25L960 0L942.2 0C924.3 0 888.7 0 853.2 0C817.7 0 782.3 0 746.8 0C711.3 0 675.7 0 640 0C604.3 0 568.7 0 533.2 0C497.7 0 462.3 0 426.8 0C391.3 0 355.7 0 320 0C284.3 0 248.7 0 213.2 0C177.7 0 142.3 0 106.8 0C71.3 0 35.7 0 17.8 0L0 0Z" fill="#d28266"></path><path d="M0 52L17.8 44.3C35.7 36.7 71.3 21.3 106.8 20.2C142.3 19 177.7 32 213.2 31.7C248.7 31.3 284.3 17.7 320 12.8C355.7 8 391.3 12 426.8 15.8C462.3 19.7 497.7 23.3 533.2 30.2C568.7 37 604.3 47 640 49.8C675.7 52.7 711.3 48.3 746.8 48.7C782.3 49 817.7 54 853.2 54.8C888.7 55.7 924.3 52.3 942.2 50.7L960 49L960 0L942.2 0C924.3 0 888.7 0 853.2 0C817.7 0 782.3 0 746.8 0C711.3 0 675.7 0 640 0C604.3 0 568.7 0 533.2 0C497.7 0 462.3 0 426.8 0C391.3 0 355.7 0 320 0C284.3 0 248.7 0 213.2 0C177.7 0 142.3 0 106.8 0C71.3 0 35.7 0 17.8 0L0 0Z" fill="#e5906f"></path></svg>