<svg id="visual" viewBox="0 0 320 100" width="320" height="100" xmlns="http://www.w3.org/2000/svg" xmlns:xlink="http://www.w3.org/1999/xlink" version="1.1"><rect x="0" y="0" width="320" height="100" fill="#E5906F"></rect><path d="M0 46L6 47.5C12 49 24 52 35.8 52.5C47.7 53 59.3 51 71.2 45.5C83 40 95 31 106.8 32.8C118.7 34.7 130.3 47.3 142.2 51.3C154 55.3 166 50.7 177.8 48C189.7 45.3 201.3 44.7 213.2 41.2C225 37.7 237 31.3 248.8 33.7C260.7 36 272.3 47 284.2 53.2C296 59.3 308 60.7 314 61.3L320 62L320 0L314 0C308 0 296 0 284.2 0C272.3 0 260.7 0 248.8 0C237 0 225 0 213.2 0C201.3 0 189.7 0 177.8 0C166 0 154 0 142.2 0C130.3 0 118.7 0 106.8 0C95 0 83 0 71.2 0C59.3 0 47.7 0 35.8 0C24 0 12 0 6 0L0 0Z" fill="#136773"></path><path d="M0 18L6 20.8C12 23.7 24 29.3 35.8 29.3C47.7 29.3 59.3 23.7 71.2 25.5C83 27.3 95 36.7 106.8 38.7C118.7 40.7 130.3 35.3 142.2 32C154 28.7 166 27.3 177.8 26C189.7 24.7 201.3 23.3 213.2 27.7C225 32 237 42 248.8 45.8C260.7 49.7 272.3 47.3 284.2 44.7C296 42 308 39 314 37.5L320 36L320 0L314 0C308 0 296 0 284.2 0C272.3 0 260.7 0 248.8 0C237 0 225 0 213.2 0C201.3 0 189.7 0 177.8 0C166 0 154 0 142.2 0C130.3 0 118.7 0 106.8 0C95 0 83 0 71.2 0C59.3 0 47.7 0 35.8 0C24 0 12 0 6 0L0 0Z" fill="#125a66"></path><path d="M0 19L6 17.5C12 16 24 13 35.8 13C47.7 13 59.3 16 71.2 20.2C83 24.3 95 29.7 106.8 32.8C118.7 36 130.3 37 142.2 34.5C154 32 166 26 177.8 25C189.7 24 201.3 28 213.2 28C225 28 237 24 248.8 21.7C260.7 19.3 272.3 18.7 284.2 16.3C296 14 308 10 314 8L320 6L320 0L314 0C308 0 296 0 284.2 0C272.3 0 260.7 0 248.8 0C237 0 225 0 213.2 0C201.3 0 189.7 0 177.8 0C166 0 154 0 142.2 0C130.3 0 118.7 0 106.8 0C95 0 83 0 71.2 0C59.3 0 47.7 0 35.8 0C24 0 12 0 6 0L0 0Z" fill="#104d58"></path><path d="M0 11L6 11C12 11 24 11 35.8 11.3C47.7 11.7 59.3 12.3 71.2 13.3C83 14.3 95 15.7 106.8 15.2C118.7 14.7 130.3 12.3 142.2 10.2C154 8 166 6 177.8 5.7C189.7 5.3 201.3 6.7 213.2 7.2C225 7.7 237 7.3 248.8 7.7C260.7 8 272.3 9 284.2 9.8C296 10.7 308 11.3 314 11.7L320 12L320 0L314 0C308 0 296 0 284.2 0C272.3 0 260.7 0 248.8 0C237 0 225 0 213.2 0C201.3 0 189.7 0 177.8 0C166 0 154 0 142.2 0C130.3 0 118.7 0 106.8 0C95 0 83 0 71.2 0C59.3 0 47.7 0 35.8 0C24 0 12 0 6 0L0 0Z" fill="#0e404b"></path></svg>